<svg width="32" height="32" viewBox="0 0 32 32" fill="none" xmlns="http://www.w3.org/2000/svg">
<rect width="32" height="32" rx="16" fill="white" fill-opacity="0.88"/>
<path fill-rule="evenodd" clip-rule="evenodd" d="M5.66699 16C5.66699 15.4477 6.11471 15 6.66699 15L22.9193 15L16.6265 8.70711C16.2359 8.31658 16.2359 7.68342 16.6265 7.29289C17.017 6.90237 17.6501 6.90237 18.0407 7.29289L26.0407 15.2929C26.4312 15.6834 26.4312 16.3166 26.0407 16.7071L18.0407 24.7071C17.6501 25.0976 17.017 25.0976 16.6265 24.7071C16.2359 24.3166 16.2359 23.6834 16.6265 23.2929L22.9193 17L6.66699 17C6.11471 17 5.66699 16.5523 5.66699 16Z" fill="#242729"/>
</svg>
