<?xml version="1.0" encoding="UTF-8"?><svg id="_图层_1" xmlns="http://www.w3.org/2000/svg" viewBox="0 0 24 24"><defs><style>.cls-1{fill:#61686b;fill-rule:evenodd;}</style></defs><path class="cls-1" d="M12.04,0c-3.24,0-3.65,.01-4.93,.07-1.28,.06-2.14,.26-2.91,.56-.8,.3-1.51,.77-2.11,1.38-.61,.6-1.08,1.32-1.38,2.12-.29,.76-.49,1.63-.56,2.9-.05,1.28-.07,1.68-.07,4.93s.01,3.65,.07,4.93c.07,1.27,.27,2.14,.56,2.9,.31,.8,.77,1.52,1.38,2.12,.6,.61,1.32,1.08,2.11,1.38,.77,.29,1.63,.5,2.91,.56,1.28,.06,1.69,.07,4.93,.07s3.65-.01,4.93-.07c1.28-.06,2.14-.26,2.91-.56,.8-.3,1.51-.77,2.11-1.38,.61-.6,1.08-1.32,1.38-2.12,.29-.76,.49-1.63,.56-2.9,.05-1.28,.07-1.68,.07-4.93s-.01-3.65-.07-4.93c-.07-1.27-.27-2.14-.56-2.9-.31-.8-.77-1.52-1.38-2.12-.6-.61-1.32-1.08-2.11-1.38-.77-.29-1.63-.5-2.91-.56-1.28-.06-1.67-.07-4.93-.07Zm0,2.16c3.19,0,3.57,.01,4.84,.07,1.16,.05,1.79,.25,2.22,.41,.56,.22,.96,.48,1.37,.89,.43,.42,.68,.82,.9,1.38,.16,.42,.36,1.05,.41,2.22,.05,1.26,.07,1.64,.07,4.83s-.01,3.57-.07,4.83c-.05,1.17-.25,1.8-.41,2.22-.2,.52-.5,.99-.9,1.38-.39,.4-.85,.7-1.37,.89-.43,.16-1.06,.36-2.22,.41-1.26,.06-1.65,.07-4.84,.07s-3.57-.01-4.84-.07c-1.16-.05-1.79-.25-2.22-.41-.52-.19-.98-.5-1.37-.89-.4-.39-.7-.86-.9-1.38-.16-.42-.36-1.05-.41-2.22-.05-1.26-.07-1.64-.07-4.83s.01-3.57,.07-4.83c.05-1.17,.25-1.8,.41-2.22,.23-.56,.48-.96,.9-1.38,.39-.4,.85-.7,1.37-.89,.43-.16,1.06-.36,2.22-.41,1.26-.06,1.65-.07,4.84-.07Z"/><path class="cls-1" d="M12.44,15.82c-.5,0-1-.1-1.48-.29-.46-.19-.89-.48-1.25-.84-.36-.36-.64-.78-.83-1.25-.21-.47-.3-.97-.3-1.48s.09-1.01,.3-1.48c.19-.47,.48-.89,.83-1.25,.36-.36,.78-.64,1.25-.84,.48-.19,.98-.29,1.48-.29,1.03,0,2,.41,2.72,1.13,.73,.72,1.13,1.7,1.13,2.73s-.4,2-1.13,2.73c-.72,.72-1.69,1.13-2.72,1.13Zm0-9.79c-1.58,0-3.08,.63-4.2,1.74-1.12,1.11-1.75,2.62-1.75,4.2s.63,3.09,1.75,4.2c1.12,1.11,2.62,1.74,4.2,1.74s3.08-.63,4.2-1.74c1.12-1.11,1.75-2.62,1.75-4.2s-.63-3.09-1.75-4.2c-1.12-1.11-2.62-1.74-4.2-1.74Zm7.66-.11c0,.37-.14,.73-.41,.99-.26,.26-.62,.41-.99,.41s-.73-.15-.99-.41c-.27-.26-.42-.62-.42-.99s.15-.73,.42-.99c.26-.26,.62-.41,.99-.41s.73,.15,.99,.41c.27,.26,.41,.62,.41,.99Z"/></svg>