<svg width="208" height="160" viewBox="0 0 208 160" fill="none" xmlns="http://www.w3.org/2000/svg">
<g id="NCAP">
<g id="Vector">
<mask id="path-1-inside-1_2943_25471" fill="white">
<path d="M201.764 160H6.23626C3.25465 160 0.828064 157.549 0.828064 154.537V5.46307C0.828064 2.45121 3.25465 0 6.23626 0H201.764C204.745 0 207.172 2.45121 207.172 5.46307V154.537C207.172 157.549 204.745 160 201.764 160ZM6.23626 0.495456C3.51925 0.495456 1.31209 2.72501 1.31209 5.46958V154.543C1.31209 157.288 3.51925 159.518 6.23626 159.518H201.764C204.481 159.518 206.688 157.288 206.688 154.543V5.46307C206.688 2.71849 204.481 0.488938 201.764 0.488938H6.23626V0.495456Z"/>
</mask>
<path d="M201.764 160H6.23626C3.25465 160 0.828064 157.549 0.828064 154.537V5.46307C0.828064 2.45121 3.25465 0 6.23626 0H201.764C204.745 0 207.172 2.45121 207.172 5.46307V154.537C207.172 157.549 204.745 160 201.764 160ZM6.23626 0.495456C3.51925 0.495456 1.31209 2.72501 1.31209 5.46958V154.543C1.31209 157.288 3.51925 159.518 6.23626 159.518H201.764C204.481 159.518 206.688 157.288 206.688 154.543V5.46307C206.688 2.71849 204.481 0.488938 201.764 0.488938H6.23626V0.495456Z" fill="#343A3A"/>
<path d="M6.23626 0.495456V1.69546H7.43626V0.495456H6.23626ZM6.23626 0.488938V-0.711062H5.03626V0.488938H6.23626ZM201.764 158.8H6.23626V161.2H201.764V158.8ZM6.23626 158.8C3.92879 158.8 2.02806 156.898 2.02806 154.537H-0.371936C-0.371936 158.2 2.58052 161.2 6.23626 161.2V158.8ZM2.02806 154.537V5.46307H-0.371936V154.537H2.02806ZM2.02806 5.46307C2.02806 3.1025 3.92879 1.2 6.23626 1.2V-1.2C2.58052 -1.2 -0.371936 1.79992 -0.371936 5.46307H2.02806ZM6.23626 1.2H201.764V-1.2H6.23626V1.2ZM201.764 1.2C204.071 1.2 205.972 3.1025 205.972 5.46307H208.372C208.372 1.79992 205.419 -1.2 201.764 -1.2V1.2ZM205.972 5.46307V154.537H208.372V5.46307H205.972ZM205.972 154.537C205.972 156.898 204.071 158.8 201.764 158.8V161.2C205.419 161.2 208.372 158.2 208.372 154.537H205.972ZM6.23626 -0.704544C2.84512 -0.704544 0.112092 2.07372 0.112092 5.46958H2.51209C2.51209 3.3763 4.19339 1.69546 6.23626 1.69546V-0.704544ZM0.112092 5.46958V154.543H2.51209V5.46958H0.112092ZM0.112092 154.543C0.112092 157.939 2.84512 160.718 6.23626 160.718V158.318C4.19339 158.318 2.51209 156.637 2.51209 154.543H0.112092ZM6.23626 160.718H201.764V158.318H6.23626V160.718ZM201.764 160.718C205.155 160.718 207.888 157.939 207.888 154.543H205.488C205.488 156.637 203.807 158.318 201.764 158.318V160.718ZM207.888 154.543V5.46307H205.488V154.543H207.888ZM207.888 5.46307C207.888 2.0672 205.155 -0.711062 201.764 -0.711062V1.68894C203.807 1.68894 205.488 3.36979 205.488 5.46307H207.888ZM201.764 -0.711062H6.23626V1.68894H201.764V-0.711062ZM5.03626 0.488938V0.495456H7.43626V0.488938H5.03626Z" fill="black" mask="url(#path-1-inside-1_2943_25471)"/>
</g>
<path id="Vector_2" d="M206.933 102.969H1.07336V5.46143C1.07336 2.57996 3.38378 0.246094 6.23632 0.246094H201.764C204.616 0.246094 206.927 2.57996 206.927 5.46143V102.962L206.933 102.969Z" fill="#343A3A"/>
<path id="Vector_3" d="M72.1992 136.74V127.398H68.895V125.494H77.743V127.398H74.4451V136.74H72.1992Z" fill="#343A3A"/>
<path id="Vector_4" d="M83.842 134.151L85.9653 134.509C85.6942 135.298 85.2618 135.898 84.6681 136.309C84.0743 136.719 83.3386 136.928 82.4545 136.928C81.054 136.928 80.015 136.465 79.3438 135.54C78.8146 134.796 78.5435 133.864 78.5435 132.73C78.5435 131.38 78.892 130.324 79.589 129.561C80.286 128.799 81.1702 128.414 82.2415 128.414C83.4419 128.414 84.3906 128.812 85.0811 129.614C85.7717 130.415 86.1072 131.641 86.075 133.29H80.7313C80.7442 133.929 80.9185 134.425 81.2476 134.783C81.5768 135.135 81.9898 135.318 82.4803 135.318C82.8159 135.318 83.0934 135.227 83.3257 135.044C83.5516 134.862 83.7258 134.562 83.842 134.157V134.151ZM83.9646 131.974C83.9517 131.348 83.7904 130.878 83.487 130.552C83.1837 130.226 82.8159 130.063 82.377 130.063C81.9123 130.063 81.5251 130.233 81.2218 130.578C80.9185 130.924 80.77 131.387 80.7765 131.974H83.9646Z" fill="#343A3A"/>
<path id="Vector_5" d="M87.0687 134.418L89.2113 134.085C89.3016 134.503 89.4888 134.822 89.7663 135.037C90.0438 135.252 90.4375 135.363 90.9344 135.363C91.483 135.363 91.9025 135.259 92.18 135.057C92.3671 134.913 92.464 134.724 92.464 134.483C92.464 134.32 92.4123 134.183 92.3091 134.079C92.1993 133.975 91.967 133.883 91.5927 133.792C89.8696 133.407 88.7789 133.055 88.3207 132.742C87.6818 132.306 87.3655 131.693 87.3655 130.911C87.3655 130.207 87.643 129.613 88.1916 129.131C88.7402 128.648 89.5985 128.407 90.7602 128.407C91.9218 128.407 92.6834 128.59 93.219 128.955C93.7547 129.32 94.1226 129.854 94.3291 130.565L92.3155 130.943C92.2316 130.624 92.0638 130.383 91.825 130.213C91.5862 130.044 91.2442 129.959 90.7989 129.959C90.2374 129.959 89.8373 130.037 89.5921 130.193C89.4307 130.304 89.3468 130.454 89.3468 130.63C89.3468 130.787 89.4178 130.917 89.5598 131.021C89.7534 131.165 90.4181 131.367 91.554 131.628C92.6898 131.888 93.4836 132.208 93.9354 132.586C94.3807 132.971 94.6066 133.505 94.6066 134.19C94.6066 134.939 94.2968 135.578 93.6772 136.113C93.0577 136.647 92.1477 136.921 90.9344 136.921C89.8373 136.921 88.966 136.7 88.3271 136.243C87.6882 135.793 87.2687 135.181 87.0687 134.411V134.418Z" fill="#343A3A"/>
<path id="Vector_6" d="M100.17 128.597V130.318H98.7112V133.604C98.7112 134.269 98.7241 134.653 98.75 134.764C98.7758 134.875 98.8403 134.966 98.9371 135.038C99.0339 135.11 99.1565 135.142 99.2985 135.142C99.4986 135.142 99.7825 135.071 100.157 134.934L100.338 136.603C99.8406 136.818 99.2792 136.922 98.6531 136.922C98.2659 136.922 97.9239 136.857 97.6141 136.726C97.3043 136.596 97.0784 136.426 96.9365 136.218C96.7945 136.009 96.6912 135.729 96.6396 135.377C96.5944 135.129 96.5686 134.621 96.5686 133.858V130.305H95.5876V128.584H96.5686V126.967L98.7112 125.709V128.584H100.17V128.597Z" fill="#343A3A"/>
<path id="Vector_7" d="M112.722 134.738V136.739H105.242C105.326 135.983 105.565 135.266 105.972 134.588C106.378 133.91 107.178 133.01 108.372 131.889C109.334 130.983 109.921 130.37 110.141 130.051C110.431 129.607 110.58 129.164 110.58 128.734C110.58 128.251 110.451 127.886 110.199 127.626C109.947 127.365 109.592 127.241 109.14 127.241C108.689 127.241 108.34 127.378 108.076 127.645C107.811 127.919 107.663 128.369 107.617 128.995L105.494 128.78C105.623 127.593 106.017 126.739 106.688 126.224C107.359 125.709 108.192 125.448 109.192 125.448C110.289 125.448 111.154 125.748 111.78 126.348C112.406 126.948 112.722 127.691 112.722 128.577C112.722 129.086 112.632 129.568 112.451 130.025C112.27 130.481 111.986 130.963 111.599 131.465C111.341 131.798 110.876 132.274 110.205 132.9C109.534 133.525 109.108 133.936 108.927 134.145C108.747 134.347 108.605 134.549 108.489 134.745H112.722V134.738Z" fill="#343A3A"/>
<path id="Vector_8" d="M117.769 125.448C118.847 125.448 119.692 125.839 120.299 126.615C121.022 127.534 121.383 129.06 121.383 131.192C121.383 133.323 121.022 134.849 120.292 135.781C119.692 136.55 118.853 136.929 117.769 136.929C116.685 136.929 115.813 136.505 115.149 135.664C114.484 134.823 114.155 133.323 114.155 131.166C114.155 129.008 114.516 127.528 115.245 126.596C115.846 125.826 116.691 125.448 117.769 125.448ZM117.769 127.234C117.511 127.234 117.278 127.319 117.078 127.482C116.878 127.645 116.717 127.945 116.607 128.375C116.459 128.929 116.388 129.868 116.388 131.192C116.388 132.515 116.452 133.415 116.588 133.91C116.717 134.406 116.885 134.732 117.085 134.895C117.285 135.058 117.511 135.142 117.769 135.142C118.027 135.142 118.259 135.058 118.459 134.895C118.659 134.732 118.821 134.432 118.931 134.001C119.079 133.447 119.15 132.515 119.15 131.192C119.15 129.868 119.085 128.969 118.95 128.473C118.821 127.978 118.653 127.652 118.453 127.482C118.253 127.319 118.021 127.234 117.769 127.234Z" fill="#343A3A"/>
<path id="Vector_9" d="M130.018 134.738V136.739H122.538C122.622 135.983 122.861 135.266 123.268 134.588C123.674 133.91 124.474 133.01 125.668 131.889C126.63 130.983 127.217 130.37 127.437 130.051C127.727 129.607 127.875 129.164 127.875 128.734C127.875 128.251 127.746 127.886 127.495 127.626C127.243 127.365 126.888 127.241 126.436 127.241C125.985 127.241 125.636 127.378 125.371 127.645C125.107 127.919 124.958 128.369 124.913 128.995L122.79 128.78C122.919 127.593 123.313 126.739 123.984 126.224C124.655 125.709 125.488 125.448 126.488 125.448C127.585 125.448 128.45 125.748 129.076 126.348C129.702 126.948 130.018 127.691 130.018 128.577C130.018 129.086 129.928 129.568 129.747 130.025C129.566 130.481 129.282 130.963 128.895 131.465C128.637 131.798 128.172 132.274 127.501 132.9C126.83 133.525 126.404 133.936 126.223 134.145C126.043 134.347 125.901 134.549 125.784 134.745H130.018V134.738Z" fill="#343A3A"/>
<path id="Vector_10" d="M131.38 133.76L133.445 133.505C133.509 134.04 133.69 134.444 133.974 134.724C134.264 135.005 134.613 135.148 135.02 135.148C135.458 135.148 135.833 134.979 136.13 134.64C136.433 134.301 136.581 133.844 136.581 133.277C136.581 132.736 136.439 132.306 136.149 131.986C135.859 131.667 135.51 131.51 135.091 131.51C134.819 131.51 134.49 131.563 134.11 131.673L134.342 129.92C134.916 129.933 135.362 129.809 135.665 129.542C135.968 129.274 136.123 128.916 136.123 128.472C136.123 128.094 136.013 127.794 135.788 127.566C135.562 127.338 135.271 127.227 134.897 127.227C134.523 127.227 134.219 127.358 133.961 127.612C133.703 127.866 133.548 128.238 133.49 128.733L131.522 128.394C131.657 127.716 131.864 127.169 132.141 126.764C132.419 126.36 132.799 126.041 133.296 125.806C133.793 125.571 134.342 125.454 134.955 125.454C136.001 125.454 136.846 125.793 137.478 126.465C138.001 127.019 138.259 127.638 138.259 128.336C138.259 129.32 137.724 130.109 136.659 130.696C137.298 130.832 137.808 131.145 138.188 131.621C138.569 132.097 138.763 132.684 138.763 133.362C138.763 134.346 138.408 135.187 137.691 135.885C136.975 136.582 136.091 136.928 135.026 136.928C134.019 136.928 133.187 136.634 132.522 136.048C131.857 135.461 131.476 134.698 131.367 133.753L131.38 133.76Z" fill="#343A3A"/>
<path id="Vector_11" d="M33.5288 76.3324C33.5288 76.3324 33.503 76.2933 33.5417 76.2933H41.7315C41.7702 76.2933 41.8089 76.2672 41.8154 76.2346L44.9583 67.375C44.9712 67.3424 44.9906 67.3424 45.0035 67.375L48.2755 76.2346C48.2884 76.2672 48.3271 76.2933 48.3658 76.2933H56.4265C56.4652 76.2933 56.4717 76.3128 56.4394 76.3324L49.8115 81.7824C49.8115 81.7824 49.7663 81.8541 49.7792 81.8867L52.3284 90.5311C52.3413 90.5637 52.3284 90.5768 52.2961 90.5572L45.0293 85.1398C45.0293 85.1398 44.9518 85.1202 44.926 85.1398L37.7237 90.5768C37.7237 90.5768 37.6785 90.5898 37.6914 90.5507L40.3116 81.6781C40.3246 81.6455 40.3116 81.5999 40.2794 81.5738L33.5224 76.3193L33.5288 76.3324Z" fill="#FFDD00"/>
<path id="Vector_12" d="M63.035 76.3324C63.035 76.3324 63.0092 76.2933 63.0479 76.2933H71.2377C71.2764 76.2933 71.3151 76.2672 71.3216 76.2346L74.4645 67.375C74.4774 67.3424 74.4968 67.3424 74.5097 67.375L77.7817 76.2346C77.7946 76.2672 77.8334 76.2933 77.8721 76.2933H85.9327C85.9715 76.2933 85.9779 76.3128 85.9456 76.3324L79.3177 81.7824C79.3177 81.7824 79.2725 81.8541 79.2854 81.8867L81.8346 90.5311C81.8476 90.5637 81.8346 90.5768 81.8024 90.5572L74.5355 85.1398C74.5355 85.1398 74.4581 85.1202 74.4323 85.1398L67.2299 90.5768C67.2299 90.5768 67.1848 90.5898 67.1977 90.5507L69.8179 81.6781C69.8308 81.6455 69.8179 81.5999 69.7856 81.5738L63.0286 76.3193L63.035 76.3324Z" fill="#FFDD00"/>
<path id="Vector_13" d="M92.5477 76.3324C92.5477 76.3324 92.5219 76.2933 92.5606 76.2933H100.75C100.789 76.2933 100.828 76.2672 100.834 76.2346L103.977 67.375C103.99 67.3424 104.009 67.3424 104.022 67.375L107.294 76.2346C107.307 76.2672 107.346 76.2933 107.385 76.2933H115.445C115.484 76.2933 115.491 76.3128 115.458 76.3324L108.83 81.7824C108.83 81.7824 108.785 81.8541 108.798 81.8867L111.347 90.5311C111.36 90.5637 111.347 90.5768 111.315 90.5572L104.048 85.1398C104.048 85.1398 103.971 85.1202 103.945 85.1398L96.7426 90.5768C96.7426 90.5768 96.6975 90.5898 96.7104 90.5507L99.3306 81.6781C99.3435 81.6455 99.3306 81.5999 99.2983 81.5738L92.5413 76.3193L92.5477 76.3324Z" fill="#FFDD00"/>
<path id="Vector_14" d="M122.054 76.3324C122.054 76.3324 122.029 76.2933 122.067 76.2933H130.257C130.296 76.2933 130.334 76.2672 130.341 76.2346L133.484 67.375C133.497 67.3424 133.516 67.3424 133.529 67.375L136.801 76.2346C136.814 76.2672 136.853 76.2933 136.891 76.2933H144.952C144.991 76.2933 144.997 76.3128 144.965 76.3324L138.337 81.7824C138.337 81.7824 138.292 81.8541 138.305 81.8867L140.854 90.5311C140.867 90.5637 140.854 90.5768 140.822 90.5572L133.555 85.1398C133.555 85.1398 133.477 85.1202 133.452 85.1398L126.249 90.5768C126.249 90.5768 126.204 90.5898 126.217 90.5507L128.837 81.6781C128.85 81.6455 128.837 81.5999 128.805 81.5738L122.048 76.3193L122.054 76.3324Z" fill="#FFDD00"/>
<path id="Vector_15" d="M151.561 76.3324C151.561 76.3324 151.535 76.2933 151.573 76.2933H159.763C159.802 76.2933 159.841 76.2672 159.847 76.2346L162.99 67.375C163.003 67.3424 163.022 67.3424 163.035 67.375L166.307 76.2346C166.32 76.2672 166.359 76.2933 166.398 76.2933H174.458C174.497 76.2933 174.503 76.3128 174.471 76.3324L167.843 81.7824C167.843 81.7824 167.798 81.8541 167.811 81.8867L170.36 90.5311C170.373 90.5637 170.36 90.5768 170.328 90.5572L163.061 85.1398C163.061 85.1398 162.984 85.1202 162.958 85.1398L155.755 90.5768C155.755 90.5768 155.71 90.5898 155.723 90.5507L158.343 81.6781C158.356 81.6455 158.343 81.5999 158.311 81.5738L151.554 76.3193L151.561 76.3324Z" fill="#FFDD00"/>
<path id="Vector_16" d="M31.3538 28.5078V41.6309H40.4987V39.9881H33.2383V35.4898H38.3948V33.8731H33.2383V30.1506H40.4987V28.5078H31.3538Z" fill="white"/>
<path id="Vector_17" d="M53.658 28.5078V37.3739C53.658 41.0833 51.7025 41.8917 48.3079 41.8917C44.9132 41.8917 42.9578 41.0833 42.9578 37.3739V28.5078H44.8745V37.1848C44.8745 39.5774 45.9006 40.1576 48.3014 40.1576C50.7022 40.1576 51.7477 39.61 51.7477 37.1848V28.5078H53.6515H53.658Z" fill="white"/>
<path id="Vector_18" d="M67.0105 41.6302H64.642C62.5897 37.9991 61.1376 36.2845 60.2277 36.2845H58.1044V41.6302H56.2199V28.5137H62.4993C65.3132 28.5137 66.1328 30.2608 66.1328 32.3339C66.1328 34.1788 65.2744 35.8151 62.5574 35.8543C63.4674 36.1737 64.8872 38.0577 67.0105 41.6302ZM58.1044 34.6678H62.1315C63.3641 34.6678 64.0289 33.8594 64.0289 32.4643C64.0289 30.9388 63.3771 30.1304 62.2025 30.1304H58.1044V34.6678Z" fill="white"/>
<path id="Vector_19" d="M80.1117 34.9805C80.1117 40.3849 78.1756 41.8843 74.0775 41.8843C69.9794 41.8843 68.0433 40.3783 68.0433 34.9805C68.0433 29.5826 69.9987 28.1875 74.0775 28.1875C78.1562 28.1875 80.1117 29.6348 80.1117 34.9805ZM78.0981 35.0196C78.0981 30.6191 77.1688 29.8825 74.071 29.8825C70.9733 29.8825 70.0826 30.6191 70.0826 35.0196C70.0826 39.42 70.9926 40.1762 74.071 40.1762C77.1494 40.1762 78.0981 39.2701 78.0981 35.0196Z" fill="white"/>
<path id="Vector_20" d="M139.873 41.6302H137.562C135.665 38.0708 133.522 34.4005 131.264 30.8084V41.6302H129.398V28.5137H131.915C134.019 31.7537 136.091 35.3262 137.969 38.7879V28.5137H139.866V41.6302H139.873Z" fill="white"/>
<path id="Vector_21" d="M147.998 28.1875C149.173 28.1875 150.683 28.3961 151.67 28.6764L151.205 30.391C150.463 30.1107 149.173 29.9412 148.224 29.9412C145.171 29.9412 144.029 30.5409 144.029 34.9674C144.029 39.394 145.165 40.1241 148.224 40.1241C149.173 40.1241 150.457 39.9546 151.205 39.6938L151.67 41.4084C150.663 41.7083 149.173 41.8973 147.998 41.8973C143.919 41.8973 141.983 40.3001 141.983 34.9544C141.983 29.6087 143.919 28.2005 147.998 28.2005" fill="white"/>
<path id="Vector_22" d="M161.557 37.9795H155.542C155.129 39.2181 154.742 40.4438 154.368 41.6302H152.412C153.774 37.4906 155.523 32.6729 157.22 28.5137H160.292C161.686 32.8424 163.571 38.0708 165.081 41.6302H162.958C162.532 40.5415 162.028 39.2964 161.557 37.9795ZM158.408 30.0913C157.608 32.1057 156.827 34.2114 156.078 36.3367H160.996C160.247 34.2636 159.544 32.0862 158.924 30.0913H158.401H158.408Z" fill="white"/>
<path id="Vector_23" d="M166.72 41.6302V28.5137H173C175.813 28.5137 176.652 30.489 176.652 32.9011C176.652 35.0459 175.665 37.0603 173.077 37.0603H168.624V41.6302H166.72ZM172.645 35.4175C173.929 35.4175 174.561 34.4592 174.561 32.875C174.561 31.1083 173.929 30.1304 172.716 30.1304H168.618V35.4175H172.645Z" fill="white"/>
<path id="Vector_24" d="M125.733 34.9813C125.733 46.8397 116.214 56.4489 104.481 56.4489C92.7481 56.4489 83.2289 46.8397 83.2289 34.9813C83.2289 23.1229 92.7416 13.5137 104.481 13.5137C116.22 13.5137 125.733 23.1229 125.733 34.9813Z" fill="#FFDD00"/>
<path id="Vector_25" d="M104.481 12.5742C92.251 12.5742 82.3058 22.6268 82.3058 34.9741C82.3058 47.3214 92.2574 57.3805 104.481 57.3805C116.704 57.3805 126.662 47.3279 126.662 34.9741C126.662 22.6203 116.71 12.5742 104.481 12.5742ZM124.784 34.0418H105.41V14.4713C115.878 14.9472 124.313 23.4612 124.784 34.0418ZM103.558 14.4713V21.7988C93.6127 22.3204 91.6443 31.1213 91.27 34.0418H84.1903C84.6614 23.4677 93.09 14.9537 103.558 14.4713ZM84.1903 35.9128H103.558V55.4834C93.09 55.0075 84.6614 46.4935 84.1903 35.9128ZM105.417 55.4834V48.1493C115.355 47.6278 117.324 38.84 117.704 35.9128H124.79C124.319 46.4869 115.884 55.001 105.417 55.4834Z" fill="black"/>
</g>
</svg>
