<svg width="48" height="48" viewBox="0 0 48 48" fill="none" xmlns="http://www.w3.org/2000/svg">
<circle cx="24" cy="24" r="24" fill="white"/>
<path d="M23.0821 27C23.0468 27 23.011 26.9932 22.9772 26.9796C22.8658 26.9338 22.8061 26.8222 22.8344 26.7138L23.6783 23.4985L22.1393 22.7868C22.0284 22.7351 21.9742 22.6181 22.012 22.5097L23.1701 19.1624C23.2034 19.0658 23.3019 19 23.4128 19H26.7454C26.8399 19 26.9269 19.0481 26.9712 19.1243C27.0149 19.2009 27.0084 19.2935 26.9547 19.3642L25.1457 21.7486L26.3889 22.4571C26.4485 22.4906 26.4898 22.5455 26.5037 22.6077C26.5177 22.6703 26.5027 22.7356 26.4625 22.7877L23.2904 26.9016C23.2412 26.9651 23.1626 27 23.0821 27Z" fill="black" fill-opacity="0.8"/>
<path d="M19.2881 22.8188C19.2881 20.0545 21.5299 17.8126 24.2942 17.8126C27.0593 17.8126 29.3004 20.0545 29.3004 22.8188C29.3004 25.517 26.7691 27.7106 24.0964 27.8153V30.5603H30.1498V32.3133C30.1498 32.801 30.258 33 30.7279 33H35.5718C36.0417 33 36.1499 32.801 36.1499 32.3133V25.0216C36.1499 24.6691 36.0688 23.9778 35.7163 23.3135L35.2634 22.3334C35.2634 22.3334 35.7051 21.6223 36.3281 21.6223C36.8212 21.6223 37.8835 21.6223 37.8835 21.6223C38.2727 21.6223 38.5881 21.3066 38.5881 20.9178V20.3489C38.5881 19.8292 38.1668 19.4075 37.6467 19.4075H36.4861C35.5768 19.4075 34.8402 20.1445 34.8402 21.0535V21.4183L32.8967 17.2152C32.3955 16.1632 31.7049 15 30.234 15H18.3536C16.8832 15 16.1926 16.1632 15.6909 17.2152L13.7478 21.4183V21.0535C13.7478 20.1445 13.0113 19.4075 12.1019 19.4075H10.9414C10.4212 19.4075 10 19.8292 10 20.3489V20.9178C10 21.3066 10.3153 21.6223 10.7045 21.6223C10.7045 21.6223 11.7669 21.6223 12.26 21.6223C12.883 21.6223 13.3247 22.3334 13.3247 22.3334L12.8718 23.3135C12.5189 23.9778 12.4381 24.6691 12.4381 25.0216V32.3133C12.4381 32.801 12.5464 33 13.0163 33H17.8601C18.3297 33 18.4379 32.801 18.4379 32.3133V30.5603H24.0964V27.8153C21.4244 27.7106 19.2881 25.517 19.2881 22.8188Z" fill="black" fill-opacity="0.8"/>
</svg>
